<svg xmlns="http://www.w3.org/2000/svg" version="1.1" xmlns:xlink="http://www.w3.org/1999/xlink" xmlns:svgjs="http://svgjs.com/svgjs" width="5120" height="2880" preserveAspectRatio="none" viewBox="0 0 5120 2880"><g mask="url(&quot;#SvgjsMask1044&quot;)" fill="none"><rect width="5120" height="2880" x="0" y="0" fill="#0e2a47"></rect><path d="M4760.096926335819 1242.4985912500033L4014.6697866702066 1528.641260906954 4300.812456327158 2274.0684005725666 5046.23959599277 1987.925730915616z" fill="rgba(28, 83, 142, 0.4)" class="triangle-float2"></path><path d="M2508.24 871.58 a875.75 875.75 0 1 0 1751.5 0 a875.75 875.75 0 1 0 -1751.5 0z" fill="rgba(28, 83, 142, 0.4)" class="triangle-float2"></path><path d="M2116.062703261802 1094.1865542704463L2691.0817590456827 498.7368909990075 2095.632095774244-76.2821647848732 1520.6130399903634 519.1674984865657z" fill="rgba(28, 83, 142, 0.4)" class="triangle-float3"></path><path d="M958.821,413.754C1099.905,411.385,1218.014,308.823,1277.973,181.092C1330.049,70.154,1285.415,-50.28,1227.293,-158.174C1164.766,-274.243,1090.419,-403.388,958.821,-411.355C817.593,-419.905,696.629,-317.909,627.448,-194.489C559.9,-73.981,554.454,70.819,620.546,192.132C689.667,319.006,814.36,416.18,958.821,413.754" fill="rgba(28, 83, 142, 0.4)" class="triangle-float2"></path><path d="M2922.17 226.44 a881.47 881.47 0 1 0 1762.94 0 a881.47 881.47 0 1 0 -1762.94 0z" fill="rgba(28, 83, 142, 0.4)" class="triangle-float3"></path><path d="M1567.06 1752.23 a908.83 908.83 0 1 0 1817.66 0 a908.83 908.83 0 1 0 -1817.66 0z" fill="rgba(28, 83, 142, 0.4)" class="triangle-float2"></path><path d="M4684.815897835551 626.0368047821182L4219.088682573039 814.202813833349 4407.254691624269 1279.9300290958618 4872.981906886782 1091.764020044631z" fill="rgba(28, 83, 142, 0.4)" class="triangle-float3"></path><path d="M2907.4518771738935 1825.899594378955L3251.3614047754145 1088.3832324083196 2513.845042804779 744.4737048067982 2169.935515203258 1481.9900667774339z" fill="rgba(28, 83, 142, 0.4)" class="triangle-float1"></path><path d="M1475.0512312564892 806.0960051021757L1125.6830720828825 358.92515321321844 678.5122201939254 708.293312386825 1027.880379367532 1155.4641642757824z" fill="rgba(28, 83, 142, 0.4)" class="triangle-float2"></path><path d="M5214.27940715719 1561.2481995449307L4966.4944664363375 750.7801773671935 4156.026444258599 998.565118088046 4403.811384979453 1809.0331402657832z" fill="rgba(28, 83, 142, 0.4)" class="triangle-float3"></path><path d="M3209.5 1328.3 a855.11 855.11 0 1 0 1710.22 0 a855.11 855.11 0 1 0 -1710.22 0z" fill="rgba(28, 83, 142, 0.4)" class="triangle-float2"></path><path d="M2650.556,887.022C2730.327,883.942,2809.377,857.041,2851.454,789.201C2895.77,717.751,2897.487,627.705,2857.151,553.935C2815.116,477.057,2738.056,417.22,2650.556,421.779C2568.578,426.05,2520.297,503.23,2478.162,573.68C2434.314,646.994,2379.685,730.979,2420.864,805.825C2462.819,882.082,2563.584,890.38,2650.556,887.022" fill="rgba(28, 83, 142, 0.4)" class="triangle-float2"></path><path d="M3315.618,1213.472C3391.394,1214.994,3460.416,1174.828,3501.418,1111.086C3546.435,1041.102,3572.789,951.412,3530.153,879.953C3488.222,809.675,3397.444,800.97,3315.618,799.679C3230.544,798.337,3131.146,799.064,3089.027,872.993C3047.122,946.547,3095.412,1033.399,3142.313,1103.873C3182.9,1164.86,3242.375,1212.001,3315.618,1213.472" fill="rgba(28, 83, 142, 0.4)" class="triangle-float1"></path><path d="M2321.356,3786.814C2605.583,3762.619,2772.307,3498.483,2912.406,3250.002C3048.963,3007.802,3192.723,2726.726,3055.352,2484.987C2916.993,2241.51,2601.315,2203.05,2321.356,2209.903C2056.362,2216.389,1797.146,2300.963,1647.068,2519.459C1473.682,2771.889,1382.036,3097.672,1525.878,3368.029C1676.735,3651.57,2001.338,3814.055,2321.356,3786.814" fill="rgba(28, 83, 142, 0.4)" class="triangle-float1"></path><path d="M4010.444,3751.307C4263.993,3752.626,4435.353,3515.446,4548.527,3288.553C4647.953,3089.223,4651.452,2864.52,4552.253,2665.077C4439.34,2438.061,4263.961,2210.538,4010.444,2206.715C3752.625,2202.827,3553.22,2416.847,3439.574,2648.299C3339.408,2852.298,3377.511,3081.171,3481.972,3283.005C3597.926,3507.046,3758.178,3749.995,4010.444,3751.307" fill="rgba(28, 83, 142, 0.4)" class="triangle-float1"></path></g><defs><mask id="SvgjsMask1044"><rect width="5120" height="2880" fill="#ffffff"></rect></mask><style>
            @keyframes float1 {
                0%{transform: translate(0, 0)}
                50%{transform: translate(-10px, 0)}
                100%{transform: translate(0, 0)}
            }

            .triangle-float1 {
                animation: float1 5s infinite;
            }

            @keyframes float2 {
                0%{transform: translate(0, 0)}
                50%{transform: translate(-5px, -5px)}
                100%{transform: translate(0, 0)}
            }

            .triangle-float2 {
                animation: float2 4s infinite;
            }

            @keyframes float3 {
                0%{transform: translate(0, 0)}
                50%{transform: translate(0, -10px)}
                100%{transform: translate(0, 0)}
            }

            .triangle-float3 {
                animation: float3 6s infinite;
            }
        </style></defs></svg>